<?xml version="1.0" standalone="no"?>
<!DOCTYPE svg PUBLIC "-//W3C//DTD SVG 20010904//EN"
 "http://www.w3.org/TR/2001/REC-SVG-20010904/DTD/svg10.dtd">
<svg version="1.0" xmlns="http://www.w3.org/2000/svg"
 width="512.000000pt" height="512.000000pt" viewBox="0 0 512.000000 512.000000"
 preserveAspectRatio="xMidYMid meet">

<g transform="translate(0.000000,512.000000) scale(0.100000,-0.100000)"
fill="#ffffff" stroke="none">
<path d="M350 5091 c-163 -52 -291 -188 -335 -358 -23 -87 -22 -1511 0 -1598
24 -92 64 -164 130 -230 73 -75 136 -111 236 -136 73 -19 111 -20 830 -17 745
3 755 3 811 25 120 45 232 142 283 243 55 109 55 106 55 916 0 702 -1 753 -19
814 -46 162 -172 292 -328 340 -63 19 -91 20 -837 19 -704 -1 -776 -2 -826
-18z m1580 -367 c63 -38 60 -1 60 -791 0 -685 -1 -719 -19 -749 -40 -66 -14
-64 -791 -64 -778 0 -748 -2 -790 65 -20 32 -20 44 -18 760 l3 727 37 34 38
34 726 0 c654 0 729 -2 754 -16z"/>
<path d="M3098 5087 c-156 -53 -273 -177 -319 -337 -18 -61 -19 -112 -19 -814
0 -810 0 -807 55 -916 51 -101 163 -198 283 -243 56 -22 66 -22 811 -25 719
-3 757 -2 830 17 100 25 163 61 236 136 66 66 106 138 130 230 22 87 23 1511
0 1598 -45 173 -173 308 -339 358 -57 18 -110 19 -831 19 l-770 -1 -67 -22z
m1610 -381 l37 -34 3 -727 c2 -716 2 -728 -18 -760 -42 -67 -12 -65 -790 -65
-777 0 -751 -2 -791 64 -18 30 -19 64 -19 749 0 645 2 722 16 746 38 64 -3 60
797 61 l727 0 38 -34z"/>
<path d="M375 2351 c-95 -26 -159 -63 -230 -136 -66 -66 -106 -138 -130 -230
-22 -87 -23 -1511 0 -1598 45 -173 173 -308 339 -358 57 -18 111 -19 827 -19
740 0 769 1 832 20 156 48 282 178 328 340 18 61 19 112 19 814 0 810 0 807
-55 916 -51 101 -163 198 -283 243 -56 22 -65 22 -817 24 -715 2 -764 1 -830
-16z m1542 -368 c20 -9 44 -30 54 -47 18 -30 19 -64 19 -749 0 -790 3 -753
-60 -791 -25 -14 -100 -16 -754 -16 l-726 0 -38 34 -37 34 -3 727 c-2 715 -2
728 18 760 42 67 9 65 788 65 637 0 707 -2 739 -17z"/>
<path d="M3180 2363 c-146 -24 -300 -135 -365 -263 -55 -109 -55 -105 -55
-916 0 -702 1 -753 19 -814 46 -162 172 -292 328 -340 63 -19 92 -20 832 -20
716 0 770 1 827 19 166 50 294 185 339 358 23 87 22 1511 0 1598 -24 92 -64
164 -130 230 -73 74 -136 111 -234 136 -70 18 -116 19 -805 18 -402 -1 -742
-4 -756 -6z m1496 -379 c18 -9 43 -31 54 -49 20 -32 20 -44 18 -760 l-3 -727
-37 -34 -38 -34 -726 0 c-654 0 -729 2 -754 16 -63 38 -60 1 -60 791 0 683 1
719 19 749 40 66 11 64 789 64 626 0 708 -2 738 -16z"/>
</g>
</svg>
